<svg width="21" height="21" viewBox="0 0 21 21" fill="none" xmlns="http://www.w3.org/2000/svg">
<path d="M11.233 7.59659C11.4463 7.59602 11.6508 7.51101 11.8016 7.36015C11.9525 7.20929 12.0375 7.00485 12.0381 6.7915V5.98423C12.0381 5.54423 11.6766 5.17914 11.233 5.17914C10.7894 5.17914 10.4265 5.54423 10.4265 5.98423V6.7915C10.4265 7.23441 10.7894 7.59659 11.233 7.59659Z" fill="black"/>
<path d="M9.62277 10.8191H10.4264V15.3849C10.4264 15.8279 10.7893 16.19 11.233 16.19C11.4463 16.1895 11.6507 16.1045 11.8016 15.9536C11.9525 15.8027 12.0375 15.5983 12.038 15.3849V10.0133C12.0375 9.79997 11.9525 9.59552 11.8016 9.44466C11.6507 9.2938 11.4463 9.2088 11.233 9.20822H9.62277C9.1784 9.20822 8.81622 9.57113 8.81622 10.0133C8.81622 10.4569 9.1784 10.8191 9.62277 10.8191Z" fill="black"/>
<path d="M10.6875 20.6875C5.17332 20.6875 0.6875 16.2017 0.6875 10.6882C0.6875 5.17405 5.17332 0.6875 10.6875 0.6875C16.2017 0.6875 20.6875 5.17405 20.6875 10.6882C20.6875 16.2017 16.2017 20.6875 10.6875 20.6875ZM10.6875 1.41477C5.57477 1.41477 1.41477 5.57477 1.41477 10.6882C1.41477 15.801 5.57477 19.9602 10.6875 19.9602C15.8002 19.9602 19.9602 15.801 19.9602 10.6882C19.9602 5.57477 15.8002 1.41477 10.6875 1.41477Z" fill="black"/>
</svg>
